# Aspose.3D Wavefront OBJ Exporter
# Copyright 2004-2023 Aspose Pty Ltd.
# File created: 04/01/2023 00:42:56


#
# object obj_22235012
#

v -0.8265498876571656 0.8265498876571656 -1
v 0.8265498876571656 0.8265498876571656 -1
v 0.8265498876571656 -0.8265498876571656 -1
v -0.8265498876571656 -0.8265498876571656 -1
v -1 -0.8265498876571656 -0.8265498876571656
v -1 -0.8265498876571656 0.8265498876571656
v -1 0.8265498876571656 0.8265498876571656
v -1 0.8265498876571656 -0.8265498876571656
v 0.8265498876571656 -1 -0.8265498876571656
v 0.8265498876571656 -1 0.8265498876571656
v -0.8265498876571656 -1 0.8265498876571656
v -0.8265498876571656 -1 -0.8265498876571656
v 0.8265498876571656 0.8265498876571656 1
v -0.8265498876571656 0.8265498876571656 1
v -0.8265498876571656 -0.8265498876571656 1
v 0.8265498876571656 -0.8265498876571656 1
v 1 0.8265498876571656 -0.8265498876571656
v 1 0.8265498876571656 0.8265498876571656
v 1 -0.8265498876571656 0.8265498876571656
v 1 -0.8265498876571656 -0.8265498876571656
v 0.8265498876571656 1 0.8265498876571656
v 0.8265498876571656 1 -0.8265498876571656
v -0.8265498876571656 1 0.8265498876571656
v -0.8265498876571656 1 -0.8265498876571656
# 24 vertices

vn 0 0 -1
vn -1 0 0
vn 0 -1 0
vn 0 0 1
vn 1 0 0
vn 0.57735025882720944 0.57735025882720944 0.57735025882720944
vn 0.57735025882720944 0.57735025882720944 -0.57735025882720944
vn 0.57735025882720944 -0.57735025882720944 0.57735025882720944
vn 0.57735025882720944 -0.57735025882720944 -0.57735025882720944
vn -0.57735025882720944 0.57735025882720944 0.57735025882720944
vn -0.57735025882720944 0.57735025882720944 -0.57735025882720944
vn -0.57735025882720944 -0.57735025882720944 0.57735025882720944
vn -0.57735025882720944 -0.57735025882720944 -0.57735025882720944
vn -0.70710670948028568 0 -0.70710688829422
vn 0 0.70710688829422 -0.70710670948028568
vn 0.70710688829422 0.70710670948028568 0
vn -0.70710688829422 -0.70710670948028568 0
vn 0.70710688829422 -0.70710670948028568 0
vn -0.70710688829422 0.70710670948028568 0
vn 0 -0.70710688829422 0.70710670948028568
vn 0.70710670948028568 0 0.70710688829422
vn 0 -0.70710688829422 -0.70710670948028568
vn -0.70710670948028568 0 0.70710688829422
vn 0 0.70710688829422 0.70710670948028568
vn 0.70710670948028568 0 -0.70710688829422
vn 0 1 0
# 26 vertex normals

g obj_22235012
s 1
f 1//1 2//1 3//1
f 1//1 3//1 4//1
f 5//2 6//2 7//2
f 5//2 7//2 8//2
f 9//3 10//3 11//3
f 9//3 11//3 12//3
f 13//4 14//4 15//4
f 13//4 15//4 16//4
f 17//5 18//5 19//5
f 17//5 19//5 20//5
f 21//6 13//6 18//6
f 2//7 22//7 17//7
f 19//8 16//8 10//8
f 20//9 9//9 3//9
f 23//10 7//10 14//10
f 8//11 24//11 1//11
f 6//12 11//12 15//12
f 4//13 12//13 5//13
f 1//14 4//14 5//14
f 1//14 5//14 8//14
f 2//15 1//15 24//15
f 2//15 24//15 22//15
f 18//16 17//16 22//16
f 18//16 22//16 21//16
f 12//17 11//17 6//17
f 12//17 6//17 5//17
f 10//18 9//18 20//18
f 10//18 20//18 19//18
f 23//19 24//19 8//19
f 23//19 8//19 7//19
f 16//20 15//20 11//20
f 16//20 11//20 10//20
f 13//21 16//21 19//21
f 13//21 19//21 18//21
f 4//22 3//22 9//22
f 4//22 9//22 12//22
f 15//23 14//23 7//23
f 15//23 7//23 6//23
f 14//24 13//24 21//24
f 14//24 21//24 23//24
f 3//25 2//25 17//25
f 3//25 17//25 20//25
f 24//26 23//26 21//26
f 24//26 21//26 22//26
#44 polygons

